<?xml version="1.0" encoding="utf-8"?>
<!-- Generator: Adobe Illustrator 23.0.0, SVG Export Plug-In . SVG Version: 6.00 Build 0)  -->
<svg version="1.1" id="Layer_1" xmlns="http://www.w3.org/2000/svg" xmlns:xlink="http://www.w3.org/1999/xlink" x="0px" y="0px" viewBox="0 0 576 576" style="enable-background:new 0 0 576 576;" xml:space="preserve">
	<style type="text/css">
	.st0{fill:#059BD2;}
	.st1{fill:#FC6600;}
</style>
	<path class="st0" d="M288.92,423.36c-0.03,0.1-26.98-32.94-42.72-50.77l-22.3,52.59c32.06,47.77,53.25,88.83,64.88,108.54
	c22.75-38.5,78.19-152.82,193.08-259.77l-12.68-29.89C394.59,299.19,331.07,369.64,288.92,423.36" />
	<path class="st1" d="M456.16,549.31h91.01l-80.29-192.16c-23.39,24.88-43.69,49.49-61.27,72.94L456.16,549.31z" />
	<path class="st1" d="M328.94,27.03h-0.56h-79.3h-0.52L30.31,549.31h91.02l157.82-372.23l7.47-20.2h4.25l7.47,20.2L345.1,287.4
	c20.83-20.71,43.45-41.25,67.35-60.53L328.94,27.03z" />
</svg>
